<svg xmlns="http://www.w3.org/2000/svg" width="275.796" height="284.936" viewBox="0 0 275.796 284.936"><g transform="translate(-4.57)"><path d="M277.515,135.9,144.464,2.857a8.967,8.967,0,0,0-13.126,0L117.061,17.132a8.984,8.984,0,0,0,0,13.134l112.207,112.2L117.062,254.677a8.984,8.984,0,0,0,0,13.134l14.277,14.271a8.972,8.972,0,0,0,13.125,0L277.515,149.038a8.993,8.993,0,0,0,0-13.138Z" fill="#fff"/><path d="M170.732,142.471a9.017,9.017,0,0,0-2.857-6.571L34.833,2.857a8.975,8.975,0,0,0-13.133,0L7.426,17.133a8.978,8.978,0,0,0,0,13.134l112.2,112.2L7.426,254.677a8.978,8.978,0,0,0,0,13.134L21.7,282.082a8.982,8.982,0,0,0,13.134,0L167.875,149.038A9,9,0,0,0,170.732,142.471Z" fill="#fff"/></g></svg>